<svg width="129px" height="38px" viewBox="0 0 129 38" shape-rendering="geometricPrecision" version="1.1" xmlns="http://www.w3.org/2000/svg" xmlns:xlink="http://www.w3.org/1999/xlink">
    <defs></defs>
    <g id="Symbols" stroke="none" stroke-width="1" fill="none" fill-rule="evenodd">
        <g id="menuBar_cerntred" transform="translate(-656.000000, -24.000000)" fill-rule="nonzero">
            <g id="menuBar">
                <g id="HighLow_Logo_rgb.svg" transform="translate(656.000000, 24.000000)">
                    <polygon id="Shape" fill="#686867" points="129 32.2624287 97 38 65 32.2624287 65 19.1442543 65 6 97 11.7375713 129 6 129 19.1442543"></polygon>
                    <polygon id="Shape" fill="#DEDFDF" points="64 32 32 26.267101 0 32 0 18.8664495 0 5.73289902 32 0 64 5.73289902 64 18.8664495"></polygon>
                    <g id="Group" transform="translate(4.000000, 10.000000)" fill="#000000">
                        <polygon id="Shape" points="0.156398104 11.825 0.156398104 0.275 3.85781991 0.275 3.85781991 4.55 12.2772512 4.55 12.2772512 0.275 15.978673 0.275 15.978673 11.825 12.2772512 11.825 12.2772512 7.4 3.85781991 7.4 3.85781991 11.825"></polygon>
                        <polygon id="Shape" points="17.3080569 11.825 17.3080569 0.275 21.0094787 0.275 21.0094787 11.825 17.3080569 11.825"></polygon>
                        <path d="M37.9265403,4.175 L34.3033175,4.175 C34.3033175,3.775 34.2251185,3.5 34.0687204,3.325 C33.8341232,3.05 33.3909953,2.9 32.7654028,2.9 L31.8270142,2.9 L30.5236967,2.875 L29.1682464,2.9 C28.2819905,2.9 27.7345972,2.9 27.5781991,2.925 C27.3957346,2.925 27.1872038,2.975 26.978673,3.025 C26.5616114,3.125 26.2488152,3.325 26.0924171,3.625 C25.9099526,3.925 25.8317536,4.825 25.8317536,6.375 C25.8317536,7.3 25.9099526,7.925 26.014218,8.25 C26.1966825,8.725 26.6137441,9.05 27.2132701,9.175 C27.5521327,9.25 28.3601896,9.275 29.6113744,9.275 L31.07109,9.275 C32.0094787,9.275 32.6350711,9.25 32.9218009,9.225 C33.7298578,9.15 34.1990521,8.85 34.3033175,8.3 C34.3293839,8.175 34.3293839,7.975 34.3293839,7.675 L34.3293839,7.475 L29.6374408,7.475 L29.6374408,5.325 L37.9265403,5.325 L37.9265403,6.925 C37.9265403,8.525 37.8222749,9.6 37.6137441,10.125 C37.3791469,10.7 37.0402844,11.125 36.5971564,11.35 C35.971564,11.675 35.2417062,11.85 34.3554502,11.9 C33.8341232,11.9 32.2962085,11.925 29.7417062,11.925 C27.3175355,11.925 25.7796209,11.85 25.1018957,11.725 C24.1895735,11.525 23.485782,11.2 23.042654,10.7 C22.6255924,10.225 22.3649289,9.575 22.2345972,8.725 C22.1563981,8.25 22.1303318,7.425 22.1303318,6.225 C22.1303318,4.925 22.1824645,4 22.2606635,3.5 C22.4170616,2.525 22.7559242,1.8 23.2772512,1.3 C23.8767773,0.75 24.9976303,0.4 26.6398104,0.3 C27.5260664,0.25 28.7772512,0.225 30.3412322,0.225 C33.1303318,0.225 34.8507109,0.3 35.4763033,0.45 C36.5971564,0.7 37.3009479,1.225 37.6398104,2 C37.8222749,2.45 37.9265403,3.2 37.9265403,4.175 Z" id="Shape"></path>
                        <polygon id="Shape" points="39.021327 11.825 39.021327 0.275 42.7227488 0.275 42.7227488 4.55 51.1421801 4.55 51.1421801 0.275 54.8436019 0.275 54.8436019 11.825 51.1421801 11.825 51.1421801 7.4 42.7227488 7.4 42.7227488 11.825"></polygon>
                    </g>
                    <g id="Group" transform="translate(70.000000, 16.000000)" fill="#FFFFFF">
                        <polygon id="Shape" points="0.157746479 11.675 0.157746479 0.125 3.89107981 0.125 3.89107981 8.825 13.9605634 8.825 13.9605634 11.675"></polygon>
                        <path d="M23.2938967,0 C26.2122066,0 28.0262911,0.05 28.7361502,0.175 C29.7615023,0.35 30.4976526,0.7 30.970892,1.225 C31.4178404,1.725 31.7070423,2.4 31.8122066,3.25 C31.8910798,3.725 31.9173709,4.675 31.9173709,6.075 C31.9173709,7.775 31.7596244,8.975 31.4441315,9.625 C31.1549296,10.275 30.7079812,10.75 30.1558685,11.05 C29.7089202,11.3 29.2356808,11.45 28.7361502,11.55 C28.2366197,11.65 27.5267606,11.7 26.5539906,11.75 C25.7389671,11.775 24.7399061,11.775 23.5042254,11.775 C20.7699531,11.775 19.0610329,11.7 18.3511737,11.6 C17.4046948,11.425 16.6948357,11.125 16.2215962,10.675 C15.7746479,10.225 15.4591549,9.6 15.3014085,8.775 C15.1962441,8.275 15.143662,7.275 15.143662,5.8 C15.143662,4.85 15.1699531,4.175 15.1962441,3.775 C15.2225352,3.375 15.3014085,3 15.4065728,2.6 C15.6431925,1.8 16.0375587,1.2 16.6685446,0.825 C17.3258216,0.4 18.4300469,0.15 19.9812207,0.05 C20.7173709,0.025 21.7953052,0 23.2938967,0 Z M23.5830986,2.825 C22.058216,2.825 21.0591549,2.85 20.5859155,2.925 C19.8760563,3.025 19.429108,3.275 19.2187793,3.7 C19.0347418,4.05 18.9558685,4.775 18.9558685,5.85 C18.9558685,7 19.0347418,7.75 19.2187793,8.1 C19.429108,8.525 19.9286385,8.8 20.6910798,8.9 C21.085446,8.95 22.0319249,8.975 23.5042254,8.975 C25.3183099,8.975 26.4225352,8.925 26.8694836,8.825 C27.3690141,8.7 27.7370892,8.5 27.9211268,8.175 C28.0788732,7.925 28.1577465,7.525 28.2103286,7 C28.2366197,6.7 28.2366197,6.3 28.2366197,5.775 C28.2366197,4.675 28.1577465,3.95 27.9737089,3.625 C27.8685446,3.425 27.7370892,3.275 27.5530516,3.175 C27.2375587,3 26.8169014,2.925 26.3173709,2.875 C25.6600939,2.825 24.7661972,2.825 23.5830986,2.825 Z" id="Shape"></path>
                        <polygon id="Shape" points="41.5924883 11.65 43.8535211 4.35 46.0356808 11.65 51.1887324 11.65 55.7896714 0.075 51.7408451 0.075 48.7173709 8.025 46.1934272 0.075 41.5399061 0.075 38.9370892 8.025 36.0187793 0.075 31.9699531 0.075 36.4657277 11.65"></polygon>
                    </g>
                </g>
            </g>
        </g>
    </g>
</svg>